<svg xmlns="http://www.w3.org/2000/svg" width="104.236" height="17.808" viewBox="0 0 104.236 17.808">
  <g id="Grupo_1" data-name="Grupo 1" transform="translate(-229.563 -650.5)">
    <path id="award" d="M3.377,12.61c-.3-.3-.144-.217-.874-.412a2.506,2.506,0,0,1-.884-.463L.041,15.6a.557.557,0,0,0,.537.766L2.41,16.3l1.26,1.331a.556.556,0,0,0,.919-.173L6.4,13.021a2.5,2.5,0,0,1-3.023-.41ZM13.313,15.6l-1.578-3.869a2.514,2.514,0,0,1-.884.463c-.733.2-.572.111-.874.412a2.5,2.5,0,0,1-3.024.41l1.81,4.439a.556.556,0,0,0,.919.173L10.944,16.3l1.833.07a.557.557,0,0,0,.537-.766Zm-4.167-3.78c.531-.541.592-.494,1.349-.7a1.413,1.413,0,0,0,.99-1.008,2.235,2.235,0,0,1,.9-1.591,1.444,1.444,0,0,0,.363-1.377,2.263,2.263,0,0,1,0-1.838,1.443,1.443,0,0,0-.363-1.377,2.236,2.236,0,0,1-.9-1.591,1.414,1.414,0,0,0-.99-1.008A2.181,2.181,0,0,1,8.932.415,1.384,1.384,0,0,0,7.579.046a2.153,2.153,0,0,1-1.8,0A1.384,1.384,0,0,0,4.422.415a2.179,2.179,0,0,1-1.563.919,1.413,1.413,0,0,0-.99,1.008,2.235,2.235,0,0,1-.9,1.591A1.443,1.443,0,0,0,.6,5.31a2.261,2.261,0,0,1,0,1.837A1.444,1.444,0,0,0,.966,8.524a2.235,2.235,0,0,1,.9,1.591,1.414,1.414,0,0,0,.99,1.008c.779.212.836.179,1.349.7a1.382,1.382,0,0,0,1.73.2,1.38,1.38,0,0,1,1.479,0A1.382,1.382,0,0,0,9.146,11.824ZM3.4,6.118A3.281,3.281,0,1,1,6.677,9.458,3.31,3.31,0,0,1,3.4,6.118Z" transform="translate(229.564 650.502)" fill="#fff"/>
    <path id="award-2" data-name="award" d="M3.377,12.61c-.3-.3-.144-.217-.874-.412a2.506,2.506,0,0,1-.884-.463L.041,15.6a.557.557,0,0,0,.537.766L2.41,16.3l1.26,1.331a.556.556,0,0,0,.919-.173L6.4,13.021a2.5,2.5,0,0,1-3.023-.41ZM13.313,15.6l-1.578-3.869a2.514,2.514,0,0,1-.884.463c-.733.2-.572.111-.874.412a2.5,2.5,0,0,1-3.024.41l1.81,4.439a.556.556,0,0,0,.919.173L10.944,16.3l1.833.07a.557.557,0,0,0,.537-.766Zm-4.167-3.78c.531-.541.592-.494,1.349-.7a1.413,1.413,0,0,0,.99-1.008,2.235,2.235,0,0,1,.9-1.591,1.444,1.444,0,0,0,.363-1.377,2.263,2.263,0,0,1,0-1.838,1.443,1.443,0,0,0-.363-1.377,2.236,2.236,0,0,1-.9-1.591,1.414,1.414,0,0,0-.99-1.008A2.181,2.181,0,0,1,8.932.415,1.384,1.384,0,0,0,7.579.046a2.153,2.153,0,0,1-1.8,0A1.384,1.384,0,0,0,4.422.415a2.179,2.179,0,0,1-1.563.919,1.413,1.413,0,0,0-.99,1.008,2.235,2.235,0,0,1-.9,1.591A1.443,1.443,0,0,0,.6,5.31a2.261,2.261,0,0,1,0,1.837A1.444,1.444,0,0,0,.966,8.524a2.235,2.235,0,0,1,.9,1.591,1.414,1.414,0,0,0,.99,1.008c.779.212.836.179,1.349.7a1.382,1.382,0,0,0,1.73.2,1.38,1.38,0,0,1,1.479,0A1.382,1.382,0,0,0,9.146,11.824ZM3.4,6.118A3.281,3.281,0,1,1,6.677,9.458,3.31,3.31,0,0,1,3.4,6.118Z" transform="translate(252.284 650.502)" fill="#fff"/>
    <path id="award-3" data-name="award" d="M3.377,12.61c-.3-.3-.144-.217-.874-.412a2.506,2.506,0,0,1-.884-.463L.041,15.6a.557.557,0,0,0,.537.766L2.41,16.3l1.26,1.331a.556.556,0,0,0,.919-.173L6.4,13.021a2.5,2.5,0,0,1-3.023-.41ZM13.313,15.6l-1.578-3.869a2.514,2.514,0,0,1-.884.463c-.733.2-.572.111-.874.412a2.5,2.5,0,0,1-3.024.41l1.81,4.439a.556.556,0,0,0,.919.173L10.944,16.3l1.833.07a.557.557,0,0,0,.537-.766Zm-4.167-3.78c.531-.541.592-.494,1.349-.7a1.413,1.413,0,0,0,.99-1.008,2.235,2.235,0,0,1,.9-1.591,1.444,1.444,0,0,0,.363-1.377,2.263,2.263,0,0,1,0-1.838,1.443,1.443,0,0,0-.363-1.377,2.236,2.236,0,0,1-.9-1.591,1.414,1.414,0,0,0-.99-1.008A2.181,2.181,0,0,1,8.932.415,1.384,1.384,0,0,0,7.579.046a2.153,2.153,0,0,1-1.8,0A1.384,1.384,0,0,0,4.422.415a2.179,2.179,0,0,1-1.563.919,1.413,1.413,0,0,0-.99,1.008,2.235,2.235,0,0,1-.9,1.591A1.443,1.443,0,0,0,.6,5.31a2.261,2.261,0,0,1,0,1.837A1.444,1.444,0,0,0,.966,8.524a2.235,2.235,0,0,1,.9,1.591,1.414,1.414,0,0,0,.99,1.008c.779.212.836.179,1.349.7a1.382,1.382,0,0,0,1.73.2,1.38,1.38,0,0,1,1.479,0A1.382,1.382,0,0,0,9.146,11.824ZM3.4,6.118A3.281,3.281,0,1,1,6.677,9.458,3.31,3.31,0,0,1,3.4,6.118Z" transform="translate(275.005 650.502)" fill="#fff"/>
    <path id="award-4" data-name="award" d="M3.377,12.61c-.3-.3-.144-.217-.874-.412a2.506,2.506,0,0,1-.884-.463L.041,15.6a.557.557,0,0,0,.537.766L2.41,16.3l1.26,1.331a.556.556,0,0,0,.919-.173L6.4,13.021a2.5,2.5,0,0,1-3.023-.41ZM13.313,15.6l-1.578-3.869a2.514,2.514,0,0,1-.884.463c-.733.2-.572.111-.874.412a2.5,2.5,0,0,1-3.024.41l1.81,4.439a.556.556,0,0,0,.919.173L10.944,16.3l1.833.07a.557.557,0,0,0,.537-.766Zm-4.167-3.78c.531-.541.592-.494,1.349-.7a1.413,1.413,0,0,0,.99-1.008,2.235,2.235,0,0,1,.9-1.591,1.444,1.444,0,0,0,.363-1.377,2.263,2.263,0,0,1,0-1.838,1.443,1.443,0,0,0-.363-1.377,2.236,2.236,0,0,1-.9-1.591,1.414,1.414,0,0,0-.99-1.008A2.181,2.181,0,0,1,8.932.415,1.384,1.384,0,0,0,7.579.046a2.153,2.153,0,0,1-1.8,0A1.384,1.384,0,0,0,4.422.415a2.179,2.179,0,0,1-1.563.919,1.413,1.413,0,0,0-.99,1.008,2.235,2.235,0,0,1-.9,1.591A1.443,1.443,0,0,0,.6,5.31a2.261,2.261,0,0,1,0,1.837A1.444,1.444,0,0,0,.966,8.524a2.235,2.235,0,0,1,.9,1.591,1.414,1.414,0,0,0,.99,1.008c.779.212.836.179,1.349.7a1.382,1.382,0,0,0,1.73.2,1.38,1.38,0,0,1,1.479,0A1.382,1.382,0,0,0,9.146,11.824ZM3.4,6.118A3.281,3.281,0,1,1,6.677,9.458,3.31,3.31,0,0,1,3.4,6.118Z" transform="translate(297.725 650.502)" fill="#fff"/>
    <path id="award-5" data-name="award" d="M3.377,12.61c-.3-.3-.144-.217-.874-.412a2.506,2.506,0,0,1-.884-.463L.041,15.6a.557.557,0,0,0,.537.766L2.41,16.3l1.26,1.331a.556.556,0,0,0,.919-.173L6.4,13.021a2.5,2.5,0,0,1-3.023-.41ZM13.313,15.6l-1.578-3.869a2.514,2.514,0,0,1-.884.463c-.733.2-.572.111-.874.412a2.5,2.5,0,0,1-3.024.41l1.81,4.439a.556.556,0,0,0,.919.173L10.944,16.3l1.833.07a.557.557,0,0,0,.537-.766Zm-4.167-3.78c.531-.541.592-.494,1.349-.7a1.413,1.413,0,0,0,.99-1.008,2.235,2.235,0,0,1,.9-1.591,1.444,1.444,0,0,0,.363-1.377,2.263,2.263,0,0,1,0-1.838,1.443,1.443,0,0,0-.363-1.377,2.236,2.236,0,0,1-.9-1.591,1.414,1.414,0,0,0-.99-1.008A2.181,2.181,0,0,1,8.932.415,1.384,1.384,0,0,0,7.579.046a2.153,2.153,0,0,1-1.8,0A1.384,1.384,0,0,0,4.422.415a2.179,2.179,0,0,1-1.563.919,1.413,1.413,0,0,0-.99,1.008,2.235,2.235,0,0,1-.9,1.591A1.443,1.443,0,0,0,.6,5.31a2.261,2.261,0,0,1,0,1.837A1.444,1.444,0,0,0,.966,8.524a2.235,2.235,0,0,1,.9,1.591,1.414,1.414,0,0,0,.99,1.008c.779.212.836.179,1.349.7a1.382,1.382,0,0,0,1.73.2,1.38,1.38,0,0,1,1.479,0A1.382,1.382,0,0,0,9.146,11.824ZM3.4,6.118A3.281,3.281,0,1,1,6.677,9.458,3.31,3.31,0,0,1,3.4,6.118Z" transform="translate(320.445 650.502)" opacity="0.3"/>
  </g>
</svg>
